<svg width="2442" height="894" viewBox="0 0 2442 894" fill="none" xmlns="http://www.w3.org/2000/svg">
<rect width="2441.88" height="893.371" rx="446.685" fill="url(#paint0_linear_2211_274)"/>
<path d="M1127.4 648.093H1086.07V520.437H1128.7C1141.21 520.437 1151.95 522.993 1160.93 528.104C1169.91 533.174 1176.78 540.466 1181.56 549.982C1186.38 559.457 1188.79 570.822 1188.79 584.078C1188.79 597.375 1186.36 608.803 1181.5 618.36C1176.68 627.918 1169.7 635.273 1160.56 640.426C1151.41 645.537 1140.36 648.093 1127.4 648.093ZM1105.33 631.263H1126.34C1136.06 631.263 1144.14 629.435 1150.58 625.778C1157.02 622.08 1161.84 616.74 1165.04 609.759C1168.24 602.736 1169.84 594.176 1169.84 584.078C1169.84 574.063 1168.24 565.565 1165.04 558.584C1161.89 551.603 1157.17 546.305 1150.89 542.69C1144.62 539.074 1136.83 537.267 1127.52 537.267H1105.33V631.263ZM1260.14 648.093V520.437H1340.17V537.017H1279.4V575.913H1335.99V592.43H1279.4V631.513H1340.92V648.093H1260.14ZM1482.91 553.972C1482.25 548.071 1479.51 543.5 1474.69 540.259C1469.87 536.976 1463.8 535.334 1456.49 535.334C1451.25 535.334 1446.72 536.166 1442.9 537.828C1439.07 539.448 1436.1 541.692 1433.98 544.56C1431.91 547.385 1430.87 550.606 1430.87 554.221C1430.87 557.255 1431.57 559.872 1432.99 562.075C1434.44 564.277 1436.33 566.126 1438.66 567.622C1441.03 569.077 1443.56 570.303 1446.26 571.3C1448.96 572.256 1451.56 573.045 1454.05 573.669L1466.52 576.91C1470.59 577.907 1474.77 579.258 1479.05 580.961C1483.33 582.665 1487.3 584.909 1490.95 587.693C1494.61 590.477 1497.56 593.926 1499.81 598.04C1502.09 602.154 1503.23 607.078 1503.23 612.813C1503.23 620.043 1501.36 626.464 1497.62 632.073C1493.93 637.683 1488.54 642.109 1481.48 645.35C1474.46 648.591 1465.96 650.212 1455.99 650.212C1446.43 650.212 1438.16 648.695 1431.18 645.662C1424.2 642.628 1418.73 638.327 1414.79 632.759C1410.84 627.149 1408.66 620.501 1408.24 612.813H1427.56C1427.94 617.426 1429.43 621.269 1432.05 624.344C1434.71 627.378 1438.1 629.643 1442.21 631.139C1446.37 632.593 1450.92 633.32 1455.86 633.32C1461.31 633.32 1466.15 632.468 1470.39 630.765C1474.67 629.019 1478.03 626.609 1480.48 623.534C1482.93 620.417 1484.16 616.781 1484.16 612.626C1484.16 608.844 1483.08 605.749 1480.92 603.339C1478.8 600.928 1475.91 598.934 1472.26 597.355C1468.64 595.776 1464.55 594.384 1459.98 593.178L1444.89 589.065C1434.67 586.28 1426.57 582.187 1420.58 576.785C1414.64 571.383 1411.67 564.236 1411.67 555.343C1411.67 547.988 1413.66 541.568 1417.65 536.082C1421.64 530.597 1427.04 526.338 1433.86 523.304C1440.67 520.229 1448.36 518.692 1456.92 518.692C1465.56 518.692 1473.19 520.209 1479.8 523.242C1486.45 526.276 1491.68 530.452 1495.5 535.771C1499.33 541.048 1501.32 547.115 1501.49 553.972H1482.91ZM1592.9 520.437V648.093H1573.64V520.437H1592.9ZM1754.74 560.766C1753.53 556.984 1751.91 553.598 1749.87 550.606C1747.88 547.572 1745.49 544.996 1742.71 542.877C1739.92 540.716 1736.74 539.074 1733.17 537.952C1729.64 536.83 1725.75 536.269 1721.51 536.269C1714.32 536.269 1707.84 538.119 1702.07 541.817C1696.29 545.515 1691.72 550.938 1688.35 558.086C1685.03 565.191 1683.37 573.897 1683.37 584.203C1683.37 594.55 1685.05 603.297 1688.42 610.444C1691.78 617.592 1696.39 623.015 1702.25 626.713C1708.11 630.411 1714.78 632.26 1722.26 632.26C1729.2 632.26 1735.25 630.848 1740.4 628.022C1745.59 625.196 1749.6 621.207 1752.43 616.054C1755.3 610.86 1756.73 604.751 1756.73 597.729L1761.72 598.664H1725.19V582.769H1775.37V597.292C1775.37 608.013 1773.08 617.322 1768.51 625.217C1763.98 633.071 1757.71 639.138 1749.69 643.418C1741.71 647.698 1732.57 649.838 1722.26 649.838C1710.71 649.838 1700.57 647.179 1691.84 641.86C1683.16 636.541 1676.39 628.998 1671.52 619.233C1666.66 609.426 1664.23 597.791 1664.23 584.327C1664.23 574.146 1665.64 565.004 1668.47 556.901C1671.29 548.798 1675.26 541.921 1680.37 536.269C1685.53 530.576 1691.57 526.234 1698.51 523.242C1705.49 520.209 1713.12 518.692 1721.39 518.692C1728.29 518.692 1734.71 519.71 1740.65 521.746C1746.63 523.782 1751.95 526.67 1756.61 530.41C1761.3 534.15 1765.19 538.597 1768.26 543.749C1771.34 548.861 1773.41 554.533 1774.5 560.766H1754.74ZM1950.24 520.437V648.093H1932.54L1867.65 554.47H1866.47V648.093H1847.21V520.437H1865.04L1929.99 614.184H1931.17V520.437H1950.24Z" fill="white"/>
<path d="M1204.08 284.864C1203.38 277.192 1200.28 271.228 1194.77 266.973C1189.33 262.649 1181.55 260.487 1171.44 260.487C1164.74 260.487 1159.16 261.359 1154.7 263.102C1150.23 264.846 1146.89 267.252 1144.65 270.321C1142.42 273.321 1141.27 276.773 1141.2 280.679C1141.06 283.888 1141.69 286.713 1143.08 289.154C1144.55 291.595 1146.64 293.757 1149.36 295.64C1152.15 297.454 1155.5 299.058 1159.41 300.453C1163.31 301.848 1167.71 303.069 1172.59 304.115L1191 308.3C1201.6 310.602 1210.95 313.671 1219.04 317.507C1227.2 321.343 1234.04 325.912 1239.55 331.213C1245.13 336.514 1249.35 342.617 1252.21 349.522C1255.07 356.427 1256.53 364.169 1256.6 372.749C1256.53 386.28 1253.11 397.893 1246.35 407.589C1239.58 417.284 1229.85 424.712 1217.16 429.874C1204.53 435.035 1189.29 437.616 1171.44 437.616C1153.51 437.616 1137.89 434.93 1124.57 429.56C1111.24 424.189 1100.89 416.028 1093.49 405.078C1086.1 394.127 1082.3 380.282 1082.09 363.542H1131.68C1132.1 370.447 1133.95 376.201 1137.23 380.805C1140.5 385.408 1145 388.896 1150.72 391.267C1156.51 393.639 1163.21 394.824 1170.81 394.824C1177.79 394.824 1183.71 393.883 1188.6 392C1193.55 390.116 1197.35 387.501 1200 384.153C1202.65 380.805 1204.01 376.968 1204.08 372.644C1204.01 368.599 1202.76 365.146 1200.31 362.286C1197.87 359.357 1194.11 356.846 1189.01 354.753C1183.99 352.591 1177.58 350.603 1169.76 348.79L1147.37 343.558C1128.82 339.304 1114.21 332.433 1103.54 322.947C1092.87 313.392 1087.56 300.488 1087.63 284.236C1087.56 270.984 1091.12 259.371 1098.31 249.396C1105.49 239.422 1115.43 231.645 1128.12 226.065C1140.82 220.485 1155.29 217.695 1171.54 217.695C1188.14 217.695 1202.55 220.52 1214.75 226.17C1227.03 231.75 1236.55 239.597 1243.32 249.71C1250.08 259.824 1253.53 271.542 1253.67 284.864H1204.08ZM1399.36 220.625V434.896H1347.58V220.625H1399.36ZM1626.32 220.625H1678.01V358.834C1678.01 374.806 1674.21 388.721 1666.6 400.579C1659 412.366 1648.4 421.504 1634.8 427.99C1621.2 434.407 1605.4 437.616 1587.4 437.616C1569.2 437.616 1553.3 434.407 1539.69 427.99C1526.09 421.504 1515.53 412.366 1507.99 400.579C1500.46 388.721 1496.69 374.806 1496.69 358.834V220.625H1548.48V354.335C1548.48 361.728 1550.09 368.32 1553.3 374.109C1556.57 379.898 1561.14 384.432 1567 387.71C1572.86 390.988 1579.66 392.627 1587.4 392.627C1595.14 392.627 1601.91 390.988 1607.7 387.71C1613.56 384.432 1618.13 379.898 1621.41 374.109C1624.68 368.32 1626.32 361.728 1626.32 354.335V220.625ZM1827.7 220.625L1866.83 288.317H1868.5L1908.05 220.625H1966.01L1901.36 327.76L1968.11 434.896H1908.68L1868.5 366.471H1866.83L1826.65 434.896H1767.65L1834.08 327.76L1769.32 220.625H1827.7Z" fill="white"/>
<path fill-rule="evenodd" clip-rule="evenodd" d="M699.565 231.168C705.516 221.049 708.492 215.99 712.925 215.99C717.357 215.99 720.333 221.049 726.285 231.168L793.017 344.629C795.243 348.414 796.356 350.307 796.368 352.393C796.379 354.48 795.288 356.385 793.104 360.194L726.372 476.625C720.401 487.043 717.415 492.252 712.925 492.252C708.434 492.252 705.448 487.043 699.477 476.625L632.745 360.194C630.561 356.385 629.47 354.48 629.481 352.393C629.493 350.307 630.606 348.414 632.832 344.629L699.565 231.168Z" fill="white"/>
<path fill-rule="evenodd" clip-rule="evenodd" d="M587.657 420.075C593.659 409.729 596.66 404.555 601.141 404.57C605.621 404.585 608.588 409.778 614.522 420.164L697.28 565.025C704.22 577.172 707.689 583.246 712.913 583.245C718.138 583.243 721.604 577.167 728.537 565.016L811.186 420.153C817.05 409.874 819.982 404.735 824.435 404.694C828.888 404.653 831.915 409.737 837.967 419.906L968.764 639.66C974.949 650.052 978.042 655.247 975.814 659.167C973.585 663.087 967.539 663.087 955.445 663.087H817.042C812.677 663.087 810.495 663.087 808.697 662.049C806.899 661.012 805.807 659.123 803.623 655.344L763.415 585.791C760.416 580.602 758.916 578.008 756.673 578.014C754.43 578.02 752.945 580.623 749.975 585.829L726.386 627.173C720.415 637.639 717.43 642.872 712.931 642.873C708.431 642.874 705.443 637.643 699.466 627.181L675.94 586.002C672.953 580.774 671.46 578.16 669.211 578.16C666.962 578.16 665.469 580.774 662.482 586.001L622.905 655.276C620.728 659.087 619.639 660.992 617.835 662.039C616.031 663.087 613.836 663.087 609.447 663.087H473.595C461.639 663.087 455.661 663.087 453.425 659.205C451.189 655.323 454.189 650.152 460.188 639.81L587.657 420.075ZM650.353 548.903C651.426 547.026 651.962 546.087 651.962 545.059C651.962 544.03 651.426 543.091 650.353 541.214L607.652 466.47C604.685 461.276 603.202 458.68 600.962 458.672C598.721 458.665 597.221 461.252 594.22 466.425L503.672 622.514C500.673 627.685 499.173 630.27 500.291 632.211C501.409 634.152 504.398 634.152 510.376 634.152H597.152C599.346 634.152 600.444 634.152 601.346 633.628C602.248 633.105 602.792 632.152 603.881 630.247L650.353 548.903ZM775.468 541.145C774.392 543.033 773.853 543.976 773.856 545.01C773.859 546.043 774.403 546.984 775.49 548.864L822.555 630.281C823.648 632.17 824.194 633.115 825.093 633.633C825.991 634.152 827.083 634.152 829.265 634.152H918.183C924.229 634.152 927.253 634.152 928.367 632.192C929.481 630.232 927.935 627.634 924.842 622.439L831.695 465.941C828.669 460.857 827.156 458.314 824.929 458.335C822.703 458.355 821.237 460.925 818.304 466.064L775.468 541.145Z" fill="white"/>
<defs>
<linearGradient id="paint0_linear_2211_274" x1="1220.94" y1="0" x2="1220.94" y2="893.371" gradientUnits="userSpaceOnUse">
<stop stop-color="#2B168D"/>
<stop offset="1" stop-color="#4A2BD2"/>
</linearGradient>
</defs>
</svg>
