<svg width="2442" height="894" viewBox="0 0 2442 894" fill="none" xmlns="http://www.w3.org/2000/svg">
<rect y="0.128906" width="2441.88" height="893.371" rx="446.685" fill="black"/>
<path d="M1155.69 554.101C1155.03 548.2 1152.29 543.629 1147.47 540.388C1142.65 537.105 1136.58 535.463 1129.27 535.463C1124.03 535.463 1119.5 536.294 1115.68 537.957C1111.85 539.577 1108.88 541.821 1106.76 544.689C1104.69 547.514 1103.65 550.735 1103.65 554.35C1103.65 557.383 1104.35 560.001 1105.77 562.204C1107.22 564.406 1109.11 566.255 1111.44 567.751C1113.81 569.206 1116.34 570.432 1119.04 571.429C1121.74 572.385 1124.34 573.174 1126.83 573.797L1139.3 577.039C1143.37 578.036 1147.55 579.387 1151.83 581.09C1156.11 582.794 1160.08 585.038 1163.74 587.822C1167.39 590.606 1170.34 594.055 1172.59 598.169C1174.87 602.283 1176.01 607.207 1176.01 612.942C1176.01 620.172 1174.14 626.593 1170.4 632.202C1166.71 637.812 1161.32 642.238 1154.26 645.479C1147.24 648.72 1138.74 650.341 1128.77 650.341C1119.21 650.341 1110.94 648.824 1103.96 645.791C1096.98 642.757 1091.51 638.456 1087.57 632.888C1083.62 627.278 1081.44 620.629 1081.02 612.942H1100.34C1100.72 617.554 1102.21 621.398 1104.83 624.473C1107.49 627.507 1110.88 629.771 1114.99 631.267C1119.15 632.722 1123.7 633.449 1128.64 633.449C1134.09 633.449 1138.93 632.597 1143.17 630.893C1147.45 629.148 1150.81 626.738 1153.26 623.663C1155.72 620.546 1156.94 616.91 1156.94 612.755C1156.94 608.973 1155.86 605.878 1153.7 603.467C1151.58 601.057 1148.69 599.063 1145.04 597.484C1141.42 595.904 1137.33 594.512 1132.76 593.307L1117.67 589.193C1107.45 586.409 1099.35 582.316 1093.36 576.914C1087.42 571.512 1084.45 564.365 1084.45 555.472C1084.45 548.117 1086.44 541.697 1090.43 536.211C1094.42 530.726 1099.82 526.467 1106.64 523.433C1113.45 520.358 1121.14 518.821 1129.7 518.821C1138.35 518.821 1145.97 520.338 1152.58 523.371C1159.23 526.405 1164.46 530.581 1168.29 535.9C1172.11 541.177 1174.1 547.244 1174.27 554.101H1155.69ZM1240.13 537.146V520.566H1338.92V537.146H1299.09V648.222H1279.89V537.146H1240.13ZM1490.24 520.566H1509.56V604.527C1509.56 613.461 1507.46 621.377 1503.27 628.275C1499.07 635.132 1493.17 640.534 1485.56 644.482C1477.96 648.388 1469.05 650.341 1458.82 650.341C1448.64 650.341 1439.75 648.388 1432.14 644.482C1424.54 640.534 1418.64 635.132 1414.44 628.275C1410.25 621.377 1408.15 613.461 1408.15 604.527V520.566H1427.41V602.969C1427.41 608.745 1428.67 613.877 1431.21 618.365C1433.79 622.853 1437.42 626.385 1442.12 628.961C1446.81 631.496 1452.38 632.763 1458.82 632.763C1465.31 632.763 1470.89 631.496 1475.59 628.961C1480.33 626.385 1483.94 622.853 1486.44 618.365C1488.97 613.877 1490.24 608.745 1490.24 602.969V520.566ZM1626.28 648.222H1584.96V520.566H1627.59C1640.1 520.566 1650.84 523.122 1659.82 528.233C1668.79 533.303 1675.67 540.595 1680.45 550.111C1685.27 559.586 1687.68 570.951 1687.68 584.207C1687.68 597.504 1685.25 608.932 1680.39 618.489C1675.57 628.047 1668.58 635.402 1659.44 640.555C1650.3 645.666 1639.25 648.222 1626.28 648.222ZM1604.22 631.392H1625.22C1634.95 631.392 1643.03 629.564 1649.47 625.907C1655.91 622.209 1660.73 616.869 1663.93 609.888C1667.13 602.865 1668.73 594.305 1668.73 584.207C1668.73 574.192 1667.13 565.694 1663.93 558.713C1660.77 551.732 1656.06 546.434 1649.78 542.819C1643.51 539.203 1635.71 537.396 1626.41 537.396H1604.22V631.392ZM1778.28 520.566V648.222H1759.02V520.566H1778.28ZM1964.61 584.394C1964.61 598.024 1962.12 609.742 1957.13 619.549C1952.15 629.314 1945.31 636.836 1936.62 642.113C1927.98 647.349 1918.15 649.967 1907.14 649.967C1896.09 649.967 1886.22 647.349 1877.53 642.113C1868.89 636.836 1862.08 629.294 1857.09 619.487C1852.1 609.68 1849.61 597.982 1849.61 584.394C1849.61 570.764 1852.1 559.066 1857.09 549.301C1862.08 539.494 1868.89 531.973 1877.53 526.737C1886.22 521.46 1896.09 518.821 1907.14 518.821C1918.15 518.821 1927.98 521.46 1936.62 526.737C1945.31 531.973 1952.15 539.494 1957.13 549.301C1962.12 559.066 1964.61 570.764 1964.61 584.394ZM1945.54 584.394C1945.54 574.005 1943.86 565.258 1940.49 558.152C1937.16 551.005 1932.59 545.603 1926.78 541.946C1921 538.248 1914.46 536.398 1907.14 536.398C1899.79 536.398 1893.22 538.248 1887.44 541.946C1881.67 545.603 1877.1 551.005 1873.73 558.152C1870.41 565.258 1868.75 574.005 1868.75 584.394C1868.75 594.783 1870.41 603.551 1873.73 610.698C1877.1 617.804 1881.67 623.206 1887.44 626.904C1893.22 630.561 1899.79 632.389 1907.14 632.389C1914.46 632.389 1921 630.561 1926.78 626.904C1932.59 623.206 1937.16 617.804 1940.49 610.698C1943.86 603.551 1945.54 594.783 1945.54 584.394Z" fill="white"/>
<path d="M1204.08 284.993C1203.38 277.321 1200.28 271.357 1194.77 267.102C1189.33 262.778 1181.55 260.616 1171.44 260.616C1164.74 260.616 1159.16 261.487 1154.7 263.231C1150.23 264.975 1146.89 267.381 1144.65 270.45C1142.42 273.449 1141.27 276.902 1141.2 280.808C1141.06 284.017 1141.69 286.841 1143.08 289.283C1144.55 291.724 1146.64 293.886 1149.36 295.769C1152.15 297.583 1155.5 299.187 1159.41 300.582C1163.31 301.977 1167.71 303.198 1172.59 304.244L1191 308.429C1201.6 310.731 1210.95 313.8 1219.04 317.636C1227.2 321.472 1234.04 326.041 1239.55 331.342C1245.13 336.643 1249.35 342.746 1252.21 349.651C1255.07 356.556 1256.53 364.298 1256.6 372.878C1256.53 386.409 1253.11 398.022 1246.35 407.717C1239.58 417.413 1229.85 424.841 1217.16 430.002C1204.53 435.164 1189.29 437.745 1171.44 437.745C1153.51 437.745 1137.89 435.059 1124.57 429.689C1111.24 424.318 1100.89 416.157 1093.49 405.206C1086.1 394.256 1082.3 380.41 1082.09 363.671H1131.68C1132.1 370.576 1133.95 376.33 1137.23 380.934C1140.5 385.537 1145 389.025 1150.72 391.396C1156.51 393.768 1163.21 394.953 1170.81 394.953C1177.79 394.953 1183.71 394.012 1188.6 392.128C1193.55 390.245 1197.35 387.63 1200 384.282C1202.65 380.934 1204.01 377.097 1204.08 372.773C1204.01 368.727 1202.76 365.275 1200.31 362.415C1197.87 359.486 1194.11 356.975 1189.01 354.882C1183.99 352.72 1177.58 350.732 1169.76 348.919L1147.37 343.687C1128.82 339.433 1114.21 332.562 1103.54 323.076C1092.87 313.521 1087.56 300.617 1087.63 284.365C1087.56 271.113 1091.12 259.5 1098.31 249.525C1105.49 239.551 1115.43 231.774 1128.12 226.194C1140.82 220.614 1155.29 217.824 1171.54 217.824C1188.14 217.824 1202.55 220.649 1214.75 226.299C1227.03 231.879 1236.55 239.726 1243.32 249.839C1250.08 259.953 1253.53 271.671 1253.67 284.993H1204.08ZM1399.36 220.754V435.024H1347.58V220.754H1399.36ZM1626.32 220.754H1678.01V358.962C1678.01 374.935 1674.21 388.85 1666.6 400.708C1659 412.495 1648.4 421.632 1634.8 428.119C1621.2 434.536 1605.4 437.745 1587.4 437.745C1569.2 437.745 1553.3 434.536 1539.69 428.119C1526.09 421.632 1515.53 412.495 1507.99 400.708C1500.46 388.85 1496.69 374.935 1496.69 358.962V220.754H1548.48V354.464C1548.48 361.857 1550.09 368.448 1553.3 374.238C1556.57 380.027 1561.14 384.561 1567 387.839C1572.86 391.117 1579.66 392.756 1587.4 392.756C1595.14 392.756 1601.91 391.117 1607.7 387.839C1613.56 384.561 1618.13 380.027 1621.41 374.238C1624.68 368.448 1626.32 361.857 1626.32 354.464V220.754ZM1827.7 220.754L1866.83 288.446H1868.5L1908.05 220.754H1966.01L1901.36 327.889L1968.11 435.024H1908.68L1868.5 366.6H1866.83L1826.65 435.024H1767.65L1834.08 327.889L1769.32 220.754H1827.7Z" fill="white"/>
<path fill-rule="evenodd" clip-rule="evenodd" d="M699.565 231.297C705.516 221.178 708.492 216.119 712.925 216.119C717.357 216.119 720.333 221.178 726.285 231.297L793.017 344.758C795.243 348.543 796.356 350.435 796.368 352.522C796.379 354.609 795.288 356.514 793.104 360.323L726.372 476.754C720.401 487.172 717.415 492.381 712.925 492.381C708.434 492.381 705.448 487.172 699.477 476.754L632.745 360.323C630.561 356.514 629.47 354.609 629.481 352.522C629.493 350.435 630.606 348.543 632.832 344.758L699.565 231.297Z" fill="white"/>
<path fill-rule="evenodd" clip-rule="evenodd" d="M587.657 420.204C593.659 409.858 596.66 404.684 601.141 404.699C605.621 404.714 608.588 409.907 614.522 420.293L697.28 565.154C704.22 577.301 707.689 583.375 712.913 583.373C718.138 583.372 721.604 577.296 728.537 565.145L811.186 420.282C817.05 410.003 819.982 404.864 824.435 404.823C828.888 404.782 831.915 409.866 837.967 420.035L968.764 639.789C974.949 650.18 978.042 655.376 975.814 659.296C973.585 663.215 967.539 663.215 955.445 663.215H817.042C812.677 663.215 810.495 663.215 808.697 662.178C806.899 661.141 805.807 659.252 803.623 655.473L763.415 585.92C760.416 580.731 758.916 578.137 756.673 578.143C754.43 578.149 752.945 580.752 749.975 585.958L726.386 627.302C720.415 637.768 717.43 643.001 712.931 643.002C708.431 643.003 705.443 637.772 699.466 627.31L675.94 586.13C672.953 580.902 671.46 578.289 669.211 578.289C666.962 578.289 665.469 580.902 662.482 586.13L622.905 655.405C620.728 659.216 619.639 661.121 617.835 662.168C616.031 663.215 613.836 663.215 609.447 663.215H473.595C461.639 663.215 455.661 663.215 453.425 659.334C451.189 655.452 454.189 650.281 460.188 639.939L587.657 420.204ZM650.353 549.032C651.426 547.155 651.962 546.216 651.962 545.187C651.962 544.159 651.426 543.22 650.353 541.343L607.652 466.598C604.685 461.405 603.202 458.809 600.962 458.801C598.721 458.794 597.221 461.381 594.22 466.554L503.672 622.642C500.673 627.814 499.173 630.399 500.291 632.34C501.409 634.281 504.398 634.281 510.376 634.281H597.152C599.346 634.281 600.444 634.281 601.346 633.757C602.248 633.234 602.792 632.281 603.881 630.375L650.353 549.032ZM775.468 541.274C774.392 543.161 773.853 544.105 773.856 545.138C773.859 546.172 774.403 547.112 775.49 548.993L822.555 630.41C823.648 632.299 824.194 633.244 825.093 633.762C825.991 634.281 827.083 634.281 829.265 634.281H918.183C924.229 634.281 927.253 634.281 928.367 632.321C929.481 630.361 927.935 627.763 924.842 622.567L831.695 466.07C828.669 460.986 827.156 458.443 824.929 458.464C822.703 458.484 821.237 461.054 818.304 466.193L775.468 541.274Z" fill="white"/>
</svg>
